With: Sylvia Hoeks, Frank Lammers en Marcel Musters

Oss, jaren '30. Johanna van Heesch wil breken met de misdaad die haar omringt. Haar echtgenoot Ties valt, wanneer hij weer is vrijgelaten uit de gevangenis, terug in zijn oude gedrag. Hoe harder Johanna probeert te ontsnappen van de gruweldaden gepleegd door De Bende van Oss, hoe verder ze wegzakt in oplichting, prostitutie, doodslag en moord.

Johanna wants to change her life and quit the criminal gangs of the town of Oss in the 30ties of the 20th century. The harder she tries, the more she is involved. 

Dutch spoken English softsubs(srt) included

------------------------ Dutch Friends ------------------------
---------------------------------------------------------------
- Bezoek ook eens mijn vrienden op:  http://www.Film-Test.nl --
----- voor mijn Nederlandse Sync. ondertitels ---- en meer ----
------- http://www.Film-Test.nl ---- voor Films en meer -------
---------------------------------------------------------------

General:

Complete name                    : De Bende van Oss\De Bende van Oss.avi
Format                           : AVI
Format/Info                      : Audio Video Interleave
File size                        : 1.38 GiB
Duration                         : 1h 47mn
Overall bit rate                 : 1 852 Kbps

Video:

Format                           : MPEG-4 Visual
Format profile                   : Simple@L3
Format settings, BVOP            : No
Format settings, QPel            : No
Format settings, GMC             : No warppoints
Format settings, Matrix          : Default (H.263)
Codec ID                         : XVID
Codec ID/Hint                    : XviD
Duration                         : 1h 47mn
Bit rate                         : 1 679 Kbps
Width                            : 720 pixels
Height                           : 304 pixels
Display aspect ratio             : 2.35:1
Frame rate                       : 25.000 fps
Color space                      : YUV
Chroma subsampling               : 4:2:0
Bit depth                        : 8 bits
Scan type                        : Progressive
Compression mode                 : Lossy
Bits/(Pixel*Frame)               : 0.307
Stream size                      : 1.26 GiB (91%)
Writing library                  : XviD 1.1.2 (UTC 2006-11-01)

Audio:

Format                           : MPEG Audio
Format version                   : Version 1
Format profile                   : Layer 3
Mode                             : Joint stereo
Mode extension                   : MS Stereo
Codec ID                         : 55
Codec ID/Hint                    : MP3
Duration                         : 1h 47mn
Bit rate mode                    : Constant
Bit rate                         : 160 Kbps
Channel(s)                       : 2 channels
Sampling rate                    : 48.0 KHz
Compression mode                 : Lossy
Stream size                      : 123 MiB (9%)
Alignment                        : Split accross interleaves
Interleave, duration             : 24 ms (0.60 video frame)
Interleave, preload duration     : 285 ms
Writing library                  : LAME3.98
